<?xml version="1.0" encoding="iso-8859-1"?>
<!-- Generator: Adobe Illustrator 19.0.0, SVG Export Plug-In . SVG Version: 6.00 Build 0)  -->
<svg version="1.1" id="Capa_1" xmlns="http://www.w3.org/2000/svg" xmlns:xlink="http://www.w3.org/1999/xlink" x="0px" y="0px"
	 viewBox="0 0 489 489" style="enable-background:new 0 0 489 489;" xml:space="preserve">
<g>
	<g>
		<path d="M358.9,130.1c-8.3-8.3-20.8-8.3-29.1,0l-85.3,85.3l-85.3-85.3c-8.3-8.3-20.8-8.3-29.1,0s-8.3,20.8,0,29.1l85.5,85.1
			l-85.5,85.5c-8.3,8.3-8.3,20.8,0,29.1c4.2,3.1,17.7,10.4,29.1-1l85.3-84.9l85.3,84.9c11.5,11.5,25,4.2,29.1,1
			c8.3-8.3,8.3-20.8,0-29.1l-85.5-85.5l85.5-85.1C367.3,150.9,367.3,138.4,358.9,130.1z"/>
		<path d="M244.5,0C109.3,0,0,109.3,0,244.5S109.3,489,244.5,489S489,379.7,489,244.5S379.7,0,244.5,0z M244.5,448.4
			c-112.4,0-203.9-91.5-203.9-203.9S132.1,40.6,244.5,40.6s203.9,91.5,203.9,203.9S356.9,448.4,244.5,448.4z"/>
	</g>
</g>
<g>
</g>
<g>
</g>
<g>
</g>
<g>
</g>
<g>
</g>
<g>
</g>
<g>
</g>
<g>
</g>
<g>
</g>
<g>
</g>
<g>
</g>
<g>
</g>
<g>
</g>
<g>
</g>
<g>
</g>
</svg>
