<?xml version="1.0" encoding="utf-8"?>
<!-- Generator: Adobe Illustrator 22.1.0, SVG Export Plug-In . SVG Version: 6.00 Build 0)  -->
<svg version="1.1" id="图层_1" xmlns="http://www.w3.org/2000/svg" xmlns:xlink="http://www.w3.org/1999/xlink" x="0px" y="0px"
	 viewBox="0 0 2000 2000" style="enable-background:new 0 0 2000 2000;" xml:space="preserve">
<style type="text/css">
	.st0{fill:#E0E8FF;}
	.st1{fill:#AEC3FF;}
	.st2{fill:#D8E5FB;}
	.st3{fill:#E5CC45;}
	.st4{fill:#FFFFFF;}
	.st5{fill:#F0F1F1;}
	.st6{fill:#A9B2FF;}
	.st7{fill:none;stroke:#568AFA;stroke-width:15;stroke-linejoin:bevel;stroke-miterlimit:10;}
	.st8{fill:none;stroke:#568AFA;stroke-width:30;stroke-linecap:round;stroke-linejoin:bevel;stroke-miterlimit:10;}
</style>
<g>
	<path class="st0" d="M455.8,1447.4c0,0,437-107,596-74.6c103.8,21.2,516.5,9.7,596,55.1c79.5,45.4,221.4,158.9,113.5,220.6
		s-201.9,128.8-319.4,175.2c-100.4,39.6-140.6-70.8-367.4,6.5c-137.5,46.8-130.9,78.5-261.1,48.7
		c-268.2-61.5-107.8-155.7-289.5-180.5c-147.2-20.1-300.8-23.9-261.1-98.5S423.2,1453.5,455.8,1447.4z"/>
	<g>
		<circle class="st1" cx="1677.2" cy="525.9" r="39.1"/>
		<circle class="st2" cx="1041.9" cy="148.6" r="39.1"/>
		<circle class="st2" cx="1464.6" cy="148.6" r="39.1"/>
		<circle class="st2" cx="1800.2" cy="878.4" r="39.1"/>
		<circle class="st2" cx="1638.1" cy="1196.7" r="39.1"/>
	</g>
	<g>
		<circle class="st2" cx="199.8" cy="377.3" r="39.1"/>
		<circle class="st2" cx="238.9" cy="896.7" r="39.1"/>
		<circle class="st1" cx="278" cy="615.2" r="39.1"/>
		<circle class="st1" cx="406.5" cy="1196.7" r="39.1"/>
		<circle class="st1" cx="541" cy="299.1" r="61.5"/>
	</g>
</g>
<path class="st3" d="M1506.4,738.9c-13.2,13.2-34.7,13.2-47.8,0l-152-152c-13.2-13.3-13.2-34.7,0-47.9l118.2-118.2
	c13.2-13.2,34.6-13.2,47.9,0l152,152c13.2,13.3,13.2,34.7,0,47.9L1506.4,738.9z"/>
<g>
	<polygon class="st4" points="683.4,1162.2 548.9,1507.1 885.1,1363.9 	"/>
</g>
<polygon class="st3" points="595.8,1386.8 548.9,1507.1 666.2,1457.2 "/>
<polygon class="st2" points="885.1,1363.9 683.4,1162.2 1309.4,536.1 1511.1,737.9 "/>
<polygon class="st5" points="1511.1,737.9 1309.4,536.1 1361.4,484.2 1563.1,685.9 "/>
<polygon class="st6" points="885.1,1363.9 783.3,1262.1 1409.4,636.1 1511.1,737.9 "/>
<g>
	<path class="st7" d="M1506.4,738.9c-13.2,13.2-34.7,13.2-47.8,0l-152-152c-13.2-13.3-13.2-34.7,0-47.9l118.2-118.2
		c13.2-13.2,34.6-13.2,47.9,0l152,152c13.2,13.3,13.2,34.7,0,47.9L1506.4,738.9z"/>
	<polygon class="st7" points="683.4,1162.2 548.9,1507.1 885.1,1363.9 	"/>
	<polygon class="st7" points="595.8,1386.8 548.9,1507.1 666.2,1457.2 	"/>
	<polygon class="st7" points="885.1,1363.9 683.4,1162.2 1309.4,536.1 1511.1,737.9 	"/>
	<polygon class="st7" points="1511.1,737.9 1309.4,536.1 1361.4,484.2 1563.1,685.9 	"/>
	<polygon class="st7" points="885.1,1363.9 783.3,1262.1 1409.4,636.1 1511.1,737.9 	"/>
</g>
<path class="st8" d="M534.4,1546c0,0,267.1,57.4,343.5,50.4c92.7-8.5,257.3-119.2,350-126.9c61.4-5.1,237.6,64.8,237.6,64.8"/>
</svg>
