<?xml version="1.0" encoding="UTF-8" standalone="no"?>
<!DOCTYPE svg PUBLIC "-//W3C//DTD SVG 1.1//EN" "http://www.w3.org/Graphics/SVG/1.1/DTD/svg11.dtd">
<svg width="100%" height="100%" viewBox="0 0 655 1027" version="1.1" xmlns="http://www.w3.org/2000/svg" xmlns:xlink="http://www.w3.org/1999/xlink" xml:space="preserve" xmlns:serif="http://www.serif.com/" style="fill-rule:evenodd;clip-rule:evenodd;stroke-linejoin:round;stroke-miterlimit:2;">

    <path d="M365.452,63.901c10.457,7.481 18.896,-5.32 8.437,-24.914c-6.378,-11.946 -17.57,-27.521 -25.806,-31.37c44.249,7.81 86.99,45.749 88.757,96.372c-0.565,-0.095 -1.159,-0.192 -1.78,-0.292l0.037,0.285c70.191,12.193 85.922,46.28 90.476,131.072c-38.744,-52.25 -193.369,-65.276 -223.123,-23.46c-27.27,38.318 71.108,57.562 172.066,75.324c-57.846,39.934 25.71,115.096 70.192,253.079c15.371,31.69 29.758,30.839 31.087,19.561c1.237,-10.51 -2.437,-28.69 -9.708,-39.73c33.847,18.12 23.289,79.603 30.333,82.016c16.162,5.549 22.655,-27.76 4.715,-64.187c32.299,24.641 35.382,92.215 23.568,143.659c-15.021,65.409 -101.533,196.584 -184.108,205.004c0.292,-0.606 0.67,-1.423 1.13,-2.441c-1.141,0.289 -2.288,0.572 -3.441,0.848c-3.769,27.605 -6.675,56.066 -64.218,101.344c14.608,-0.264 26.812,6.025 33.38,21.546c-23.96,-4.818 -47.839,-11.092 -73.31,-8.627c12.452,-7.133 25.084,-11.773 36.47,-12.739c13.468,-37.368 -8.096,-156.504 -36.029,-156.754c-28.647,2.416 -76.398,28.458 -101.634,155.94c15.431,-0.848 28.399,5.299 35.239,21.475c-23.959,-4.818 -47.839,-11.088 -73.31,-8.619c11.747,-6.73 23.653,-11.242 34.524,-12.544c-10.669,-32.639 -34.43,-94.825 -33.158,-127.858c-39.371,-21.318 -70.325,-45.737 -94.329,-71.686c-0.541,-0.295 -1.127,-0.739 -1.76,-1.342c-47.695,-45.377 -106.547,-159.937 -98.502,-234.371c14.229,31.871 19.871,42.581 27.078,50.073l0.001,-0.032c-12.297,-29.45 -18.734,-77.044 -4.866,-110.13c5.947,24.759 9.707,38.707 13.706,48.631c9.983,-34.344 26.851,-57.511 42.434,-60.761c-14.351,16.077 -15.264,80.257 17.33,80.513c32.59,0.255 14.131,-93.217 23.473,-223.774c9.337,-130.554 65.863,-213.919 167.515,-233.108c-0.022,-0.079 -0.045,-0.159 -0.069,-0.24c-1.338,0.146 -2.682,0.298 -4.031,0.454c-5.687,-18.084 -35.881,-35.765 -49.849,-39.582c27.23,-9.485 69.114,0.718 81.175,19.599c5.887,-14.015 0.555,-31.314 -31.334,-61.236c44.935,1.34 62.96,18.296 75.113,36.352c0.537,0.799 1.078,1.539 1.62,2.223c1.489,1.593 2.975,3.085 4.509,4.427Zm19.057,277.254c-0.736,5.628 -2.471,25.784 -0.86,47.11c1.611,21.325 6.568,43.821 19.215,54.127c22.759,1.005 -0.69,-68.487 -18.355,-101.237Zm-6.031,-13.684c-12.544,9.92 -23.126,23.017 -28.525,32.605c-5.399,9.587 -5.615,15.665 2.571,11.545c16.369,-8.233 28.163,-29.667 25.954,-44.15Zm8.129,3.581c2.305,11.075 10.382,22.766 18.27,30.174c7.887,7.409 15.586,10.534 17.136,4.475c3.091,-12.117 -14.766,-28.542 -35.406,-34.649Zm-60.562,-199.248c8.145,-0 14.758,6.477 14.758,14.456c0,7.979 -6.613,14.457 -14.758,14.457c-8.145,-0 -14.757,-6.478 -14.757,-14.457c-0,-7.979 6.612,-14.456 14.757,-14.456Z" style="fill:#fff;"/>
</svg>
