<?xml version="1.0" standalone="no"?>
<!DOCTYPE svg PUBLIC "-//W3C//DTD SVG 20010904//EN"
 "http://www.w3.org/TR/2001/REC-SVG-20010904/DTD/svg10.dtd">
<svg version="1.0" xmlns="http://www.w3.org/2000/svg"
 width="700.000000pt" height="700.000000pt" viewBox="0 0 700.000000 700.000000"
 preserveAspectRatio="xMidYMid meet">
<metadata>
Created by potrace 1.14, written by Peter Selinger 2001-2017
</metadata>
<g transform="translate(0.000000,700.000000) scale(0.100000,-0.100000)"
fill="#000000" stroke="none">
<path d="M3298 6995 c-2 -1 -41 -6 -88 -9 -47 -4 -94 -9 -105 -11 -11 -3 -36
-7 -55 -10 -241 -35 -597 -143 -865 -261 -111 -50 -382 -189 -405 -209 -8 -7
-31 -21 -50 -32 -84 -45 -296 -199 -421 -303 -71 -60 -303 -292 -359 -359 -25
-29 -50 -59 -56 -65 -45 -47 -274 -375 -274 -393 0 -3 -6 -14 -14 -22 -8 -9
-33 -52 -55 -95 -23 -44 -45 -84 -50 -90 -31 -42 -198 -451 -226 -556 -1 -3
-4 -12 -8 -20 -7 -18 -63 -224 -71 -260 -42 -200 -56 -272 -61 -310 -3 -25 -8
-52 -10 -60 -2 -8 -7 -44 -10 -80 -3 -36 -8 -72 -10 -80 -5 -16 -14 -134 -21
-270 -9 -181 -4 -484 10 -650 12 -133 18 -187 21 -210 3 -14 7 -50 10 -80 4
-30 8 -62 10 -70 2 -8 7 -37 10 -65 4 -27 8 -57 10 -65 2 -8 7 -31 10 -50 13
-79 35 -189 70 -341 125 -554 382 -1226 687 -1797 28 -53 60 -113 69 -132 10
-19 19 -28 19 -20 1 8 3 67 5 130 6 226 29 363 86 518 73 201 214 343 401 406
131 43 312 59 488 42 138 -13 148 -15 212 -26 34 -7 74 -14 88 -16 14 -3 57
-11 95 -20 39 -9 77 -17 85 -19 97 -20 302 -79 630 -178 182 -55 273 -78 395
-101 20 -4 109 -16 155 -22 514 -63 1080 42 1575 294 132 67 319 179 390 234
6 4 42 31 80 60 128 95 168 131 331 293 374 374 612 752 765 1219 39 118 81
286 94 381 4 28 9 58 11 68 4 21 14 120 19 187 5 60 5 324 0 380 -22 254 -65
467 -140 699 -32 97 -50 145 -112 296 -30 70 -168 338 -208 400 -120 189 -221
329 -339 470 -62 74 -365 377 -426 427 -25 20 -72 59 -105 86 -266 218 -616
419 -969 557 -211 83 -503 158 -715 185 -52 7 -106 14 -120 16 -30 6 -478 14
-483 9z"/>
</g>
</svg>
