<svg viewBox="-21 1 511 511.99902" xmlns="http://www.w3.org/2000/svg"><path d="m388.304688 145.382812c17.527343-17.527343 17.527343-46.042968 0-63.570312-17.523438-17.527344-46.042969-17.527344-63.570313 0-17.523437 17.527344-17.523437 46.042969 0 63.570312 17.527344 17.523438 46.046875 17.527344 63.570313 0zm-42.378907-42.378906c5.84375-5.84375 15.347657-5.84375 21.191407 0 5.839843 5.839844 5.839843 15.347656 0 21.1875-5.84375 5.84375-15.347657 5.84375-21.191407 0-5.839843-5.839844-5.839843-15.347656 0-21.1875zm0 0"/><path d="m64.070312 469.617188 21.1875-21.1875 63.570313 63.570312 63.570313-63.570312-21.1875-21.191407 21.1875-21.1875 21.191406 21.1875 63.570312-63.566406-63.570312-63.570313 43.929687-43.933593c51.171875 24.457031 112.667969 14.472656 153.167969-26.023438 52.578125-52.578125 52.578125-138.132812 0-190.710937-52.582031-52.578125-138.132812-52.578125-190.710938 0-40.5 40.5-50.480468 101.996094-26.027343 153.164062l-213.449219 213.449219zm190.710938-105.949219-21.191406 21.191406-21.191406-21.191406-63.570313 63.570312 21.191406 21.191407-21.191406 21.1875-42.378906-42.378907 105.949219-105.949219zm-9.488281-175.90625c-24.273438-41.242188-17.746094-93.523438 15.871093-127.140625 40.894532-40.894532 107.4375-40.894532 148.332032 0 40.894531 40.894531 40.894531 107.4375 0 148.328125-33.617188 33.621093-85.898438 40.148437-127.136719 15.878906l-9.996094-5.882813-208.292969 208.292969-21.191406-21.191406 208.292969-208.292969zm0 0"/></svg>