<svg xmlns="http://www.w3.org/2000/svg" xml:space="preserve" viewBox="0 0 761.6 248.6">
  <path fill="#000000" fill-rule="evenodd" d="M678.1 206.2h-26.7c-.6 0-1-.5-1-1v-1.3c0-.6.5-1 1-1h31.3c.6 0 1 .5 1 1v.5c0 .6-.2 1.4-.6 1.8l-28.4 37.5c-.2.3-.1.6.3.6h27.6c.6 0 1 .5 1 1v1.3c0 .6-.5 1-1 1h-32.1c-.6 0-1-.5-1-1v-.5c0-.6.2-1.4.6-1.8l28.3-37.5c.2-.2 0-.6-.3-.6zm-52.1 0h-14c-.6 0-1-.5-1-1v-1.3c0-.6.5-1 1-1h33c.6 0 1 .5 1 1v1.3c0 .6-.5 1-1 1h-14.1c-.5 0-.8.3-.8.8v39.7c0 .6-.5 1-1 1h-1.3c-.6 0-1-.5-1-1V207c0-.4-.3-.8-.8-.8zm-21.1 41.5h-28.2c-.6 0-1-.5-1-1v-42.8c0-.6.5-1 1-1h28.2c.6 0 1 .5 1 1v1.3c0 .6-.5 1-1 1h-25.1c-.5 0-.8.3-.8.8v16.3c0 .5.3.8.8.8h21.1c.6 0 1 .5 1 1v1.1c0 .6-.5 1-1 1h-21.1c-.5 0-.8.3-.8.8v15.5c0 .5.3.8.8.8h25.1c.6 0 1 .5 1 1v1.3c0 .7-.4 1.1-1 1.1zm-83.1-37.4v36.4c0 .6-.5 1-1 1h-1.3c-.6 0-1-.5-1-1v-42.8c0-.6.5-1 1-1h1.1c.6 0 1.2.3 1.5.9l18.3 31.6c.2.3.6.3.8 0l18.3-31.6c.3-.6.9-.9 1.5-.9h1.1c.6 0 1 .5 1 1v42.8c0 .6-.5 1-1 1h-1.3c-.6 0-1-.5-1-1v-36.5c0-.2-.3-.3-.4-.1l-17 29.3c-.3.5-.9.9-1.5.9h-.3c-.6 0-1.2-.3-1.5-.9l-16.9-29.1c-.1-.3-.4-.2-.4 0zm-37.1 17.4h-14.3c-.6 0-1-.5-1-1v-.9c0-.6.5-1 1-1h17.2c.6 0 1 .5 1 1v21c0 .6-.5 1-1 1h-.8c-.6 0-1-.5-1-1v-4.5c0-.3-.1-1-.1-1.4l-.1-.1c0-.2-.3-.3-.5-.1-3.7 4.9-9.7 8-16.4 8-12.7 0-23-10.4-23-23.3 0-12.8 10.3-23.3 23-23.3 7.2 0 13.5 3.4 17.8 8.7.3.4.2 1.1-.2 1.4l-1.1.7c-.5.3-1.1.3-1.5-.2-3.6-4.4-9-7.2-15-7.2-10.8 0-19.6 9-19.6 19.9 0 11 8.8 19.9 19.6 19.9 6.7 0 12.6-3.5 16.2-8.9.2-.4.4-1 .4-1.4v-6.4c.2-.6-.2-.9-.6-.9zM403 209.6v37.1c0 .6-.5 1-1 1h-1.3c-.6 0-1-.5-1-1v-42.8c0-.6.5-1 1-1h1c.6 0 1.2.3 1.6.8l29.3 37.6c.2.2.5.1.5-.2v-37.2c0-.6.4-1 1-1h1.3c.6 0 1 .5 1 1v42.8c0 .6-.5 1-1 1h-1c-.6 0-1.2-.3-1.6-.8l-29.3-37.5c-.1-.2-.5-.1-.5.2zm-19.2 37.1v-42.8c0-.6.5-1 1-1h1.3c.6 0 1 .5 1 1v42.8c0 .6-.5 1-1 1h-1.3c-.5 0-1-.4-1-1zm-41.6 1h-1.3c-.6 0-1-.5-1-1v-42.8c0-.6.5-1 1-1h1.3c.6 0 1 .5 1 1v25.5c0 .3.3.5.6.2l27.1-26.1c.5-.4 1.1-.7 1.7-.7h2.5c.4 0 .6.5.3.7l-17.8 17.2c-.3.3-.3.9-.1 1.2l18.8 24.9c.3.3 0 .8-.4.8h-2.2c-.6 0-1.2-.3-1.6-.8l-17-22.5c-.3-.3-.8-.3-1.1-.1l-10.2 9.8c-.3.3-.6.9-.6 1.4v11.2c0 .7-.4 1.1-1 1.1zm-15.9-30.3c0-5.9-4.2-11.3-11.8-11.3h-15.2c-.5 0-.8.3-.8.8v20.9c0 .5.3.8.8.8h15.2c7.6.1 11.8-5.2 11.8-11.2zm-31.2 29.3v-42.8c0-.6.5-1 1-1h18.4c9.5 0 15 6.7 15 14.4 0 6.1-3.3 11.4-9.3 13.6-.3.1-.5.6-.3.9l10.5 15c.2.4 0 .9-.5.9h-2c-.6 0-1.2-.3-1.6-.9l-10.2-14.5c-.3-.3-.6-.5-1-.5h-16c-.5 0-.8.3-.8.8v14c0 .6-.5 1-1 1H296c-.4.1-.9-.3-.9-.9zm-32.4-41.3c-10.8 0-19.6 9-19.6 19.9 0 11 8.8 19.9 19.6 19.9 10.7 0 19.5-8.9 19.5-19.9.1-10.9-8.7-19.9-19.5-19.9zm0 43.2c-12.7 0-23-10.4-23-23.3 0-12.8 10.3-23.3 23-23.3 12.6 0 22.9 10.5 22.9 23.3 0 12.9-10.2 23.3-22.9 23.3zm-57.2-39.5-12.2 37.7c-.2.6-.7 1-1.4 1h-1.6c-.6 0-1.1-.4-1.4-1l-13.5-42.9c-.2-.5.2-1 .7-1h1.6c.6 0 1.1.4 1.3 1l11.9 38.1c.1.2.4.2.4 0l12.4-38.1c.2-.6.7-1 1.4-1h1.2c.6 0 1.1.4 1.4 1l12.4 38.1c.1.2.4.2.4 0l12-38.1c.2-.6.7-1 1.3-1h1.6c.5 0 .8.5.7 1l-13.5 42.9c-.2.6-.7 1-1.4 1h-1.6c-.6 0-1.1-.4-1.3-1l-12.2-37.7c-.2-.2-.6-.2-.6 0zm-56.7-3.7c-10.8 0-19.6 9-19.6 19.9 0 11 8.8 19.9 19.6 19.9 10.7 0 19.5-8.9 19.5-19.9 0-10.9-8.8-19.9-19.5-19.9zm0 43.2c-12.7 0-23-10.4-23-23.3 0-12.8 10.3-23.3 23-23.3 12.6 0 22.9 10.5 22.9 23.3 0 12.9-10.3 23.3-22.9 23.3zm-47.9-3.4c6.7 0 12.6-3.4 16.1-8.8.3-.5 1-.6 1.5-.3l1.2.7c.5.2.6.9.3 1.3-4.1 6.3-11.1 10.5-19.1 10.5-12.7 0-23-10.4-23-23.3 0-12.8 10.3-23.3 23-23.3 8 0 15 4.2 19.1 10.5.3.4.2 1.1-.3 1.3l-1.1.6c-.5.3-1.1.2-1.5-.3-3.6-5.3-9.4-8.7-16.1-8.7-10.8 0-19.6 9-19.6 19.9-.1 11 8.7 19.9 19.5 19.9zM516.4 25.5c-5.7 0-10.4-4.7-10.4-10.5-.2-5.8 4.3-10.5 10-10.5s10.4 4.7 10.4 10.5c.3 5.8-4.4 10.5-10 10.5zM273.6 81.2c0-23.7-5.6-37-14.7-36.8-8.4.2-16.3 12-18.1 36.6-1.6 24.1 6.1 36.1 15.4 34.8 8.8-1.1 16.5-12.7 17.4-34.6zm-17.4-45.3c14.9 0 29.6 8.5 29.2 39.3-.5 32.3-17.2 52.7-33 52.6-16.3 0-32.2-16.3-30.6-46.2 1.7-29.2 18.7-45.5 34.4-45.7zm-72.7 76.3c13.4-17 17.9-58.7 6.3-60-7.2-.7-18.4 12.9-25.1 37-.5 8.7-1.1 15.2-1.1 15.6-.4 3.3-.4 6.5-.7 9.8 6.1 7.7 14.3 5.5 20.6-2.4zm11.5-76c29.9-.4 25.1 64.5-2.3 85.2-9.7 7.1-22.2 9.4-30.1.4-.7 11.4-1.4 22.8-2.1 34.4-.5 9.6-12.2 11.1-19.9 8.7 0-2.9 3.2-57.4 3.4-60 0-1.1 3-38.1 4.5-57.6.9-10.1 12.7-12.1 20.1-8.3-.4 5.3-1.1 15.2-1.8 25.7 7.8-18.5 19.2-28.5 28.2-28.5zM467.2 48v-.2c-5.9-5.6-13.4-3.8-19.2 3.3-13.4 17-17.9 59.3-6.4 60.5 6.6.7 16.8-11.1 23.6-31.9 0-4.3.2-8.5.5-12.5.1-.9.6-8.1 1.5-19.2zm192.2-3.4c-13.3 0-18.3 28.1-18.3 38.1 12.7 1.4 29.2-38.1 18.3-38.1zm-280.4 66c-4.3 10.4-12 16.8-20.1 16.8-13.3 0-19-11.6-21-22.7-.2-.5-.2-1.1-.4-1.4-3.9 12.1-10.2 24.5-22.7 24.5-13.4 0-19-11.4-21-22.8s-1.6-25.6-1.1-37.7c.2-1.1.9-7.6 1.6-18.7.9-11.4 10-13.8 20.2-10-1.1 14.1-2 27.2-2.2 28.5-.7 9.2-1.6 21.2-1.4 30.6.4 6.2.2 18.3 9.1 18.1 9.7 0 14-16.7 16.3-26.8-.4-7.4 0-15 .4-21.9.2-1.1.7-8.3 1.6-19.6.7-10.7 11.3-12.5 20.2-8.9-1.3 14.3-2.1 27-2.1 28.1-.9 9.2-1.8 21.2-1.4 30.8.2 6 .2 18.1 9.1 17.9 3.6 0 7.2-2.4 9.3-6 1.3-2.3 2.5-5.2 3.5-8.8-1.2-10.5-.9-22.8-.3-33.3 0-1.3 3-39.9 4.5-57.4.7-9.8 12.5-12.3 20.1-7.8-1.1 14.3-4.8 63.8-5 64.9-.7 9.2-1.4 21.2-1.3 30.8.2 6 0 18.1 9 17.9 3.6 0 7.3-2.4 9.5-6 1.1-2 2.1-4.4 3-7.3-2-20.6 6.4-48.3 22.6-60.6 9.3-7.1 21.9-8.3 29.9.2 3.4-5.6 11.3-6 18.3-3.3-1.1 14.3-1.8 27-2 28.3-.7 9.2-1.6 21.2-1.3 30.6 0 6.2 0 18.3 9 18.1 3.6 0 7.2-2.4 9.5-6.2.3-.5.6-1.1.9-1.7-.2-.9-.4-1.9-.6-2.8-2-11.4-1.6-25.7-.9-37.9 0-.9.7-8.2 1.6-19.4.7-10.7 11.3-12.5 20.1-8.9-1.1 14.3-2 27-2.2 28.1-.7 9.2-1.6 21.2-1.3 30.6.2 6.2 0 18.3 9 18.3 3.6-.2 7.2-2.5 9.5-6.2 1.4-2.4 2.6-5.5 3.5-9.3-1.2-10.5-.9-22.7-.2-33.1 0-1.3 3-39.9 4.5-57.4C547 0 558.8-2.5 566.4 2c-1.1 14.3-4.8 63.8-5 64.9-.7 9.2-1.4 21.2-1.3 30.8.2 6 0 18.1 9 17.9 3.6 0 7.3-2.4 9.5-6 1.4-2.4 2.6-5.5 3.5-9.3-1.2-10.5-.9-22.7-.2-33.1 0-1.3 3-39.9 4.5-57.4.7-9.8 12.5-12.3 20.1-7.8-1.1 14.3-4.8 63.8-5 64.9-.7 9.2-1.4 21.2-1.3 30.8.2 6 0 18.1 9 17.9 3.6 0 7.3-2.4 9.5-6 1.4-2.5 2.7-5.8 3.6-9.8-8.4-27 7.6-64 36.2-64 36.4 0 18.3 52-16.7 52-1.3 17.2 12.7 29 24.9 29 7.9 0 17.2-2.4 21.7-17 .1 0 .1 0 .2-.1 4.1-15.8 8.4-40.4 7-47.1-2.5-1.3-5.2-3.6-7.3-6.3-4.1-5.4-4.7-15.2 3-15.2 6.6 0 12 7.8 11.5 17.2 5.4.4 10.4-1.1 16.5-4.3 6.8-4.7 13.3-6.2 19.3-3.3-1.1 14.3-1.8 25-2 26.1-.7 9.2-1.6 21.2-1.3 30.8 0 6 0 18.1 9 18.1 3.6 0 7.2-2.5 9.5-6.2 1.4-2.5 2.7-6 3.6-10 4.1-2 5 .7 4.1 4-.5 1.8-1.1 3.8-1.8 5.6-3.9 11.4-12 18.3-20.6 18.3-13.4 0-19.2-11.4-21.1-22.7-2-11.4-1.6-25.7-.9-37.7 0-.9.5-5.8 1.3-14.7-3.9 1.8-10 2.9-16.1 2.2-.9 12.2-4.7 36.5-10.3 51.5-4.6 14.5-16.6 21.3-28.7 21.3-19.4 0-31.6-8.6-37.8-20.5-.2.7-.5 1.4-.7 2-3.9 11.4-12 18.5-20.8 18.5-11.1 0-16.9-8.1-19.6-17.2-4.1 10.6-11.9 17.2-20.3 17.2-11 0-16.8-8-19.6-17.1-4.1 10.5-11.9 17.1-20.1 17.1-9.4 0-14.9-5.6-18.1-12.7-4.4 8-11.1 12.7-18 12.7-13.4 0-19.2-11.6-21.1-22.8-.4-2.4-.7-5.1-1.1-7.8-7.9 19.8-19.9 30.4-29.2 30.6-9.3.1-15.2-6.3-18.1-15.7-4.2 9.7-11.7 15.7-19.7 15.7-11.5.5-17.3-7.6-20.1-16.7zm-300.9-66c-13.3 0-18.3 28.1-18.3 38.1 12.8 1.4 29.3-38.1 18.3-38.1zm-34.2 62.7c-.2.7-.5 1.4-.7 2-3.9 11.4-12 18.5-20.8 18.5-13.3 0-19-11.6-21-22.7-2-11.4-1.6-25.7-.9-37.7 0-1.3 3-39.9 4.5-57.4C5.8.2 17.6-2.4 25.1 2.2 24 16.5 20.3 66 20.1 67c-.7 9.2-1.4 21.2-1.3 30.8.2 6 0 18.1 9 17.9 3.6 0 7.3-2.4 9.5-6 1.4-2.5 2.7-5.8 3.6-9.8-8.4-27 7.6-64 36.2-64 36.4 0 18.3 52-16.7 52-1.3 17.2 12.7 29 24.9 29 7.9 0 17.2-2.4 21.7-17 4.5-1.6 4.8.9 4.1 4-3.9 16.1-16.7 23.7-29.4 23.7-19.4.2-31.5-8.4-37.8-20.3z" clip-rule="evenodd"/>
</svg>
