<svg xmlns="http://www.w3.org/2000/svg" xml:space="preserve" baseProfile="tiny-ps" version="1.2" viewBox="0 0 620 620">
<title>Coworking Metz</title>
  <path fill="#e9b241" d="M0 0h620v620H0V0z"/>
  <path fill="#fff" fill-rule="evenodd" d="M329 139.5c4 2.9 7.2-2 3.2-9.6-2.5-4.6-6.7-10.6-9.9-12.1 17 3 33.4 17.6 34.1 37-.2 0-.4-.1-.7-.1v.1c27 4.7 33 17.8 34.7 50.4-14.9-20-74.3-25.1-85.7-9-10.5 14.7 27.4 22.1 66.1 29-22.2 15.4 9.9 44.3 27 97.2 5.9 12.1 11.4 11.9 11.9 7.5.4-4-1-11-3.7-15.3 13 6.9 8.9 30.6 11.6 31.5 6.2 2.1 8.7-10.7 1.8-24.7 12.4 9.4 13.6 35.4 9.1 55.2-5.8 25.2-39 75.6-70.7 78.8.1-.2.3-.5.4-1-.4.1-.9.2-1.3.3-1.5 10.6-2.6 21.6-24.7 38.9 5.6-.1 10.3 2.3 12.8 8.3-9.2-1.8-18.4-4.2-28.2-3.3 4.8-2.7 9.7-4.5 14-4.9 5.2-14.3-3.1-60.1-13.8-60.2-11 1-29.3 10.9-39.1 59.9 5.9-.3 10.9 2 13.5 8.3-9.2-1.8-18.4-4.2-28.2-3.3 4.5-2.6 9.1-4.3 13.2-4.8-4.1-12.5-13.2-36.4-12.7-49.2-15.1-8.2-27-17.6-36.3-27.6-.2-.1-.4-.3-.7-.5-18.4-17.4-41-61.4-37.8-90.1 5.5 12.2 7.6 16.4 10.4 19.2-4.8-11.3-7.2-29.6-1.9-42.4 2.3 9.5 3.7 14.9 5.3 18.7 3.8-13.2 10.3-22.1 16.3-23.3-5.5 6.1-5.9 30.9 6.7 30.9 12.5.1 5.4-35.8 9-86 3.6-50.2 25.3-82.2 64.4-89.5v-.1c-.5.1-1 .1-1.5.1-2.2-6.9-13.8-13.8-19.2-15.2 10.5-3.7 26.6.3 31.2 7.5 2.3-5.4.2-12-12.1-23.6 17.3.5 24.2 7 28.9 14l.7.9c.7 1 1.3 1.5 1.9 2.1zm7.3 106.5c-.3 2.2-1 9.9-.4 18.1.6 8.2 2.6 16.8 7.4 20.8 8.8.4-.2-26.3-7-38.9zm-2.3-5.2c-4.8 3.8-8.9 8.9-11 12.5-2 3.7-2.1 6 1 4.5 6.3-3.3 10.9-11.5 10-17zm3.1 1.4c.9 4.2 4 8.8 7 11.6 3 2.9 6 4 6.6 1.8 1.2-4.8-5.6-11.1-13.6-13.4zm-23.2-76.6c3.1 0 5.7 2.5 5.7 5.6 0 3.1-2.6 5.6-5.7 5.6s-5.7-2.5-5.7-5.6c0-3.1 2.5-5.6 5.7-5.6z"/>
</svg>
