<svg height="511pt" viewBox="1 -63 511.99998 511" width="511pt" xmlns="http://www.w3.org/2000/svg"><path d="m464 .5h-416c-26.511719 0-48 21.488281-48 48v288c0 26.507812 21.488281 48 48 48h416c26.511719 0 48-21.492188 48-48v-288c0-26.511719-21.492188-48-48-48zm-416 32h416c8.835938 0 16 7.164062 16 16v217.375l-148.6875-148.6875c-6.25-6.246094-16.375-6.246094-22.625 0l-108.6875 108.6875-44.6875-44.6875c-6.25-6.246094-16.375-6.246094-22.625 0l-100.6875 100.6875v-233.375c0-8.835938 7.164062-16 16-16zm416 320h-416c-8.835938 0-16-7.164062-16-16v-9.375l112-112 68.6875 68.6875c3 3 7.070312 4.6875 11.3125 4.6875h64c8.835938 0 16-7.164062 16-16s-7.164062-16-16-16h-57.375l-8-8 97.375-97.375 160 160v25.375c0 8.835938-7.164062 16-16 16zm0 0"/><path d="m176 144.5c26.511719 0 48-21.492188 48-48 0-26.511719-21.488281-48-48-48s-48 21.488281-48 48c0 26.507812 21.492188 48 48 48zm0-64c8.835938 0 16 7.164062 16 16s-7.164062 16-16 16-16-7.164062-16-16 7.164062-16 16-16zm0 0"/></svg>