<?xml version="1.0" encoding="iso-8859-1"?>
<!-- Generator: Adobe Illustrator 19.0.0, SVG Export Plug-In . SVG Version: 6.00 Build 0)  -->
<svg version="1.1" id="Capa_1" xmlns="http://www.w3.org/2000/svg" xmlns:xlink="http://www.w3.org/1999/xlink" x="0px" y="0px"
	 viewBox="0 0 512.001 512.001" style="enable-background:new 0 0 512.001 512.001;" xml:space="preserve">
<g>
	<g>
		<path d="M504.951,333.28l-51.756-32.347l51.731-32.198c4.396-2.736,7.07-7.544,7.075-12.721s-2.66-9.99-7.05-12.734
			l-51.756-32.347l51.731-32.198c4.393-2.734,7.066-7.539,7.074-12.712c0.008-5.174-2.651-9.987-7.036-12.734l-241-151
			c-4.871-3.052-11.057-3.052-15.928,0l-241,151c-4.385,2.747-7.044,7.56-7.036,12.734c0.008,5.174,2.682,9.979,7.074,12.712
			l51.731,32.198L7.051,243.28c-4.39,2.744-7.055,7.557-7.05,12.734s2.679,9.985,7.074,12.721l51.731,32.198L7.051,333.28
			c-4.383,2.74-7.047,7.543-7.05,12.712s2.655,9.975,7.036,12.719l241,151c2.436,1.526,5.199,2.289,7.964,2.289
			c2.765,0,5.528-0.763,7.964-2.289l241-151c4.381-2.744,7.039-7.551,7.036-12.719C511.998,340.824,509.334,336.021,504.951,333.28z
			 M43.32,165.959L256.001,32.702l212.681,133.257L256.001,298.332L43.32,165.959z M43.346,255.975l43.822-27.389l160.908,100.15
			c4.852,3.02,11,3.02,15.852,0l160.908-100.15l43.822,27.389L256.001,388.332L43.346,255.975z M256.001,479.3L43.277,346.017
			l43.89-27.431l160.908,100.15c4.85,3.02,11,3.021,15.852,0l160.908-100.15l43.89,27.431L256.001,479.3z"/>
	</g>
</g>
<g>
</g>
<g>
</g>
<g>
</g>
<g>
</g>
<g>
</g>
<g>
</g>
<g>
</g>
<g>
</g>
<g>
</g>
<g>
</g>
<g>
</g>
<g>
</g>
<g>
</g>
<g>
</g>
<g>
</g>
</svg>
