<svg height="512pt" viewBox="0 0 512.00001 512" width="512pt" xmlns="http://www.w3.org/2000/svg"><path d="m257.761719 207.046875h-60.050781v90.050781h90.0625v-30h-60.0625v-30.050781h60.050781v-90.046875h-90.0625v30h60.0625zm0 0"/><path d="m407.859375 297.109375v-150.121094h-30v60.058594h-30.050781v-60.058594h-30v90.058594h60.050781v60.0625zm0 0"/><path d="m419.316406 113.902344-21.210937-21.214844 28.304687-28.308594 21.214844 21.214844zm0 0"/><path d="m340.109375 13.753906 27.714844 11.480469-15.320313 36.988281-27.714844-11.480468zm0 0"/><path d="m240.992188 0h30v40.03125h-30zm0 0"/><path d="m171.882812 13.75 15.320313 36.988281-27.71875 11.480469-15.320313-36.984375zm0 0"/><path d="m85.570312 64.375 28.308594 28.308594-21.214844 21.210937-28.308593-28.304687zm0 0"/><path d="m426.410156 447.644531-28.308594-28.304687 21.214844-21.214844 28.308594 28.308594zm0 0"/><path d="m486.769531 367.824219-36.988281-15.320313 11.480469-27.71875 36.988281 15.320313zm0 0"/><path d="m471.96875 241.007812h40.03125v30h-40.03125zm0 0"/><path d="m486.78125 144.191406 11.480469 27.71875-36.984375 15.320313-11.484375-27.71875zm0 0"/><path d="m228.347656 396.066406c-25.699218-9.242187-49.191406-24.128906-68.742187-43.679687s-34.4375-43.042969-43.679688-68.742188h31.722657v-136.644531h-147.648438v73.824219c0 77.773437 30.289062 150.890625 85.28125 205.886719 54.996094 54.992187 128.113281 85.28125 205.886719 85.28125h73.824219v-147.648438h-136.644532zm30 39.28125v-41.003906h76.644532v87.648438h-43.824219c-69.757813 0-135.34375-27.164063-184.671875-76.496094-49.328125-49.328125-76.496094-114.914063-76.496094-184.671875v-43.824219h87.648438v76.644531h-41.003907l4.542969 18.566407c9.371094 38.277343 29.148438 73.335937 57.203125 101.390624 28.054687 28.050782 63.113281 47.832032 101.390625 57.203126zm0 0"/></svg>